<svg xmlns="http://www.w3.org/2000/svg" xmlns:xlink="http://www.w3.org/1999/xlink" viewBox="0 0 4044 991"><defs><linearGradient id="a" x1="3305.88" y1="247.63" x2="3305.88" y2="401.91" gradientUnits="userSpaceOnUse"><stop offset="0" stop-color="#fff"/><stop offset="0.22" stop-color="#fff" stop-opacity="0.76"/><stop offset="0.6" stop-color="#fff" stop-opacity="0.36"/><stop offset="0.87" stop-color="#fff" stop-opacity="0.1"/><stop offset="1" stop-color="#fff" stop-opacity="0"/></linearGradient><linearGradient id="b" x1="1400.63" y1="158.33" x2="1400.63" y2="269.51" xlink:href="#a"/><linearGradient id="c" x1="2110.74" y1="211.54" x2="2110.74" y2="352.9" xlink:href="#a"/><linearGradient id="d" x1="959.39" y1="-30.16" x2="959.39" y2="258.43" xlink:href="#a"/><linearGradient id="e" x1="2748.72" y1="35" x2="2748.72" y2="287.06" xlink:href="#a"/></defs><title>mountains</title><path d="M3417.62,330.35c.2-2.31.33-4.63.33-7,0-44.38-36.33-80.35-81.15-80.35a81.28,81.28,0,0,0-67.51,35.76c-1.69-.16-3.4-.25-5.14-.25A53.34,53.34,0,0,0,3210.88,329a44.17,44.17,0,0,0-9.35-1c-23.9,0-43.28,19-43.28,42.51a42.58,42.58,0,0,0,28.91,40.1,42.63,42.63,0,0,0,70.6,23.3,58.73,58.73,0,0,0,70.31-.28,41.69,41.69,0,0,0,62.15-1.09,53.23,53.23,0,0,0,63.28-52.07A53.05,53.05,0,0,0,3417.62,330.35Z" style="fill-rule:evenodd;opacity:0.5;fill:url(#a)"/><path d="M1507,288.88c0-16.92-14-30.63-31.19-30.63a31.82,31.82,0,0,0-6.74.73,38.44,38.44,0,0,0-38.38-36.38c-1.25,0-2.48.06-3.7.18A58.57,58.57,0,0,0,1378.35,197c-32.3,0-58.48,25.92-58.48,57.9,0,1.7.09,3.38.23,5a38.19,38.19,0,0,0,12.5,74.33,38.65,38.65,0,0,0,7.24-.69,30,30,0,0,0,44.79.79,42.32,42.32,0,0,0,50.66.2,30.72,30.72,0,0,0,50.87-16.79A30.68,30.68,0,0,0,1507,288.88Z" style="fill-rule:evenodd;opacity:0.5;fill:url(#b)"/><path d="M2246,324.13c0-21.51-17.75-39-39.66-39a40.46,40.46,0,0,0-8.57.92,48.87,48.87,0,0,0-48.8-46.26c-1.59,0-3.16.08-4.71.23a74.47,74.47,0,0,0-61.86-32.77c-41.06,0-74.35,33-74.35,73.62,0,2.16.11,4.29.3,6.41a48.56,48.56,0,0,0,15.89,94.52,49.16,49.16,0,0,0,9.21-.88,38.2,38.2,0,0,0,56.95,1,53.81,53.81,0,0,0,64.42.25,39.06,39.06,0,0,0,64.68-21.35A39,39,0,0,0,2246,324.13Z" style="fill-rule:evenodd;opacity:0.5;fill:url(#c)"/><path d="M1211.53,162.14a34.15,34.15,0,0,0-17.43-.12,54.88,54.88,0,0,0-53.55-44,53.94,53.94,0,0,0-70.89-32.3,65.64,65.64,0,0,0-41.25-33.18,66.48,66.48,0,0,0-6.74-1.44,70,70,0,0,0-121.83-9.07A99.4,99.4,0,0,0,798.25,93a74,74,0,0,0-23.89-11.31,73.28,73.28,0,0,0-90.1,51.72c-10.43,39.18,13,79.54,52.34,90.15A74.16,74.16,0,0,0,754,226a75.14,75.14,0,0,0,119.66,34.52,75,75,0,0,0,127.12,12,65.39,65.39,0,0,0,119.69-15.41,64.72,64.72,0,0,0-.29-34.45,55.34,55.34,0,0,0,6.53,2.22A54.38,54.38,0,0,0,1175,214.88a34.15,34.15,0,1,0,36.57-52.74Z" style="fill-rule:evenodd;opacity:0.5;fill:url(#d)"/><path d="M2930.28,180.54c-1.33,0-2.65,0-4,.12a84.88,84.88,0,0,0-41.82-43.17A94.81,94.81,0,0,0,2739,96.12a105.76,105.76,0,0,0-153.84,83.35c-2.57-.25-5.18-.38-7.81-.38a80.21,80.21,0,1,0,15.15,159,62.68,62.68,0,0,0,100-6.47,59.77,59.77,0,0,0,92.63,1,64.16,64.16,0,0,0,111.6-20.6,70,70,0,1,0,33.54-131.45Z" style="fill-rule:evenodd;opacity:0.5;fill:url(#e)"/><path d="M2200.6,701.74c16.74-10.6,35.27-24.84,54.2-30.92,15.76-5.06,25.1-.49,40.85,2.51,18.34,3.5,23.61-5.87,39-6.89,6.45-.43,12.6,4.17,19.32,3.74,10.25-.65,17.52-7.64,26.65-11.85,7.48-3.45,18.24-8.14,26.09-10.18,11.5-3,25.79,3,36.35-2.74,4.59-2.51,6.23-9.65,10.92-12.54,5.5-3.4,13.21-2.58,19.26-4.08,9.15-2.26,17.87-7.35,26.85-8.47,14.44-1.81,31.29,5.59,46.32,5.54,35.57-.12,69,1.29,104,9.25,15,3.41,31.06,5.24,45.87,9.24,16.28,4.4,27.77,18.52,43.81,21.82,8.48,1.75,17.82-1.86,26.22.7,6.22,1.89,10.55,7.59,16.69,9.44,12.34,3.72,53-15.2,60.4-18.07,11.06-4.29,11.12-12.9,24.67-15.57,7.73-1.52,14.79-.08,22.32-3.48,7.09-3.2,11.61-11.27,18.54-14.75s11.2-1.4,17.86-3.28c8.71-2.45,8.08-4.19,15.57-9.65,9.75-7.11,32.58-24.21,44.55-23.79,12.74.45,31.46,18,41.78,25.22,31.17,21.9,61.9,36.38,86,66.3,10.92,13.58,22.58,23.75,31.5,39.11,6.69,11.52,12,29,22.4,37.88,5.35,4.56,18.15,4.32,21.74,10,7.08,11.16-10.33,17.2-19,22.13-44.66,25.38-82.31,58.62-123.77,88.37C2957.64,941.28,2846.4,984,2730,980c-57.74-2-100.11,13.79-156.85,3-26.89-5.12-54.85-10.81-80-21.91-21-9.25-38.09-25.09-58.41-35.84-33.41-17.68-68.91-31.18-103.51-46.26-21.22-9.25-46.06-17.72-61.08-35.91-18.91-22.9-36-48.79-53.49-72.85-7.15-9.83-17.9-21.38-21.88-33.05C2191.55,727.82,2190.61,708,2200.6,701.74Z" style="fill:#7e5376"/><path d="M2713,980c8.33-12.54-12-44.78-18.37-58-14.31-29.44-35-51.38-52.12-78.28-20.87-32.73-36.13-67.74-76.6-84.37-23.4-9.62-44.55-10.55-66.48-24.81-20.74-13.48-38.27-30.5-57.86-45.26-55.66-41.95-117.28-80.2-175.93-118.61-33.37-21.86-69.58-38.88-98.28-66.27-32.11-30.65-56.39-55.9-95.25-78.41-33.13-19.19-57.37-44.83-97.67-47.38-43.89-2.77-97.19-21-140.14-14.13-26.61,4.25-28.67,22.63-48.59,39.75-28.37,24.38-61.69,53.1-98.85,64.18-47.88,14.28-89.83,14.86-133.38,40.06-35.52,20.55-65.9,37.11-108.38,34.2-46.94-3.22-85.47,16.74-132.39,16.83-36.65.08-73.23-.75-109.9.21-17,21.44-2.06,69.32,2.23,92.44,12,64.62,22.94,130.71,54.14,189.93C1285.79,892.64,1316,941.63,1347,990H2696.23C2704,986.79,2710.81,983.34,2713,980Z" style="fill:#492c45"/><path d="M4047,467.39c-17-6.22-34-12.27-51.46-17.49-20.54-6.15-39.8-10.19-59.75-18.71-21-9-42.52-23.93-66.48-25-13.08-.58-24.65,3.5-37.76,2.13-12.2-1.27-24-6.62-35.78-9.22-20.05-4.41-40.05-7.74-60-13-45.63-11.94-92-15-135.87-25-32.15-7.37-42.34,13.69-69.1,24.42-19.58,7.85-41.56,7.83-60.46,17.38-24.42,12.33-43.94,20.4-70,30.1-22.59,8.42-39.38,22-64.14,27.1-31.72,6.58-44,1.22-59.88,27.17-12,19.63-22.77,33.09-44,46.94-41.49,27.1-70.49,63.83-107.5,95.63-57.48,49.37-130.29,96.41-174.44,155.54C2896.93,857,2727.21,924.22,2664,990H4047Z" style="fill:#301e2a"/><path d="M1872,990c-9.93-9.75-19.2-20.52-30.08-29.06-13.58-10.65-24.92-15-43.69-19.16-48.41-10.85-83.65-25.55-122.48-58.8-32.44-27.78-60.19-56.41-95-82.21-30.47-22.59-60.65-47.34-92.35-67.9-32.87-21.32-67.78-37.51-99.35-61-17.31-12.9-33.79-28.19-52.35-39-25.53-14.91-54.43-22.65-79.92-37.89-41-24.51-77.31-56.68-120.13-77.8-41.45-20.45-86.73-27.92-129.3-45.6-18.16-7.54-36-15.88-53.93-24-26.87-12.19-38.93-9.69-67.78-7-27.09,2.53-37.25-.88-60.25-14.2-14.13-8.18-29.24-13.61-43.62-20.78-18.42-9.18-35.32-18.51-53.19-27.14-9.56-4.62-19.39-13.62-27.16-17.44-8.89-4.37-18.85-2.59-27.2-7.69-8.51-5.21-15.35-16.35-24-22.18s-19.1-10.41-28.23-15.49c-18.34-10.2-37-14.49-55.61-23.1-23.5-10.87-41.58-27.81-60.21-45.34-15.63-14.7-28.94-16.93-48.66-24.87-23.13-9.3-38.31-30.64-63-20.7-10.79,4.35-21.88,17.17-32.26,25.33-18,14.18-36.07,10.81-53.27,27-15,14-27.16,37.11-44,48.38-12.56,8.43-24.1,10.63-36,19.76-7.54,5.79-13.08,13.66-22.39,18.19-16.61,8.09-30.69,19.22-49.71,31.5C110.21,401.94,47.88,387.56,3,420.06V990Z" style="fill:#1e131b"/></svg>