<svg xmlns="http://www.w3.org/2000/svg" viewBox="0 0 760 406"><title>nix-white</title><path d="M746.4,114.17c4.22-3.12,7-4.5,11.7-4.67,0-.5,0-1,0-1.49A106.07,106.07,0,0,0,633.94,3.56l.21.06A105.12,105.12,0,0,0,614.53,9l-.14.05a29.28,29.28,0,0,1,4.09,8.33l.26.89c.26,1,.65,3,.66,3.09.09.61.16,1.23.21,1.85s.11,2.15.11,2.4c0,0,0,.08,0,.12q0,11.74-9.09,20.82t-21.2,9.09h-.21a28.24,28.24,0,0,1-14.59-4.13l-.23-.14a37,37,0,0,1-7.3-5.95l-.23-.23-.13.18a105.86,105.86,0,0,0,12.43,139.42l-.21-.07A106,106,0,0,0,749.4,150.17,20.45,20.45,0,0,1,746.1,148a20.06,20.06,0,0,1-3.68-3.71,20.76,20.76,0,0,1-4-16C739.3,122.26,741.91,117.49,746.4,114.17ZM703.52,80.89a9.41,9.41,0,0,1,1,17.94,94.64,94.64,0,0,1-108.48,90,99.53,99.53,0,0,1-13.49-11.3A98.39,98.39,0,0,1,568.61,56a36.3,36.3,0,0,0,21.25,6.87c9.68,0,18.26-3.67,25.52-10.92A35.56,35.56,0,0,0,626.29,26a35.06,35.06,0,0,0-2.21-12.34h0a98,98,0,0,1,26.54-4,95.12,95.12,0,0,1,40,35.94A14.32,14.32,0,1,1,701.73,72Q702.83,76.36,703.52,80.89Z" style="fill:#fff"/><path d="M619.14,124.39A22.62,22.62,0,1,0,641.75,147,22.64,22.64,0,0,0,619.14,124.39Zm0,37.69A15.08,15.08,0,1,1,634.21,147,15.09,15.09,0,0,1,619.14,162.08Z" style="fill:#fff"/><path d="M670.88,89.52a17.34,17.34,0,1,0,17.34,17.34A17.36,17.36,0,0,0,670.88,89.52Zm0,27.14a9.8,9.8,0,1,1,9.8-9.8A9.81,9.81,0,0,1,670.88,116.65Z" style="fill:#fff"/><path d="M613.18,93.72a13.57,13.57,0,1,0-13.57-13.57A13.58,13.58,0,0,0,613.18,93.72Zm0-19.6a6,6,0,1,1-6,6A6,6,0,0,1,613.18,74.12Z" style="fill:#fff"/><path d="M139,191.64a84.86,84.86,0,0,0-37.71,8.29,70.67,70.67,0,0,0-27.76,24q0-14.08-9.32-22.79t-25.07-8.7q-16.58,0-26.93,9.32T1.83,225.62V369q0,15.75,9.94,24.86T38.7,403q17,0,26.93-9.12T75.58,369v-82q0-17.81,9.74-28.38T111.63,248q12.84,0,19.27,8.29t6.42,26.52V369q0,15.75,9.95,24.86T174.2,403q17,0,26.93-9.12T211.08,369v-89.5q0-44.33-17.82-66.09T139,191.64Z" style="fill:#fff"/><path d="M315.71,201q-10.57-8.49-26.31-8.49T263.08,201q-10.57,8.5-10.57,25.48V369q0,17,10.57,25.48T289.39,403q15.74,0,26.31-8.49T326.27,369V226.45Q326.27,209.46,315.71,201Z" style="fill:#fff"/><path d="M505.27,295.65l47.24-46.41q10.35-10.77,10.36-24,0-12.84-9.74-22.58a31.47,31.47,0,0,0-23-9.74q-13.67,0-24.45,11.19l-44.75,45.16L416.6,204.07q-10.36-11.6-24.45-11.6-13.27,0-23,9.94t-9.74,23.21q0,13.27,10.36,23.62L417,295.65,365.63,347q-10.36,10.36-10.36,23.62,0,12.85,9.94,22.79t23.2,9.94q13.67,0,24.45-11.19l48.07-50.55,48.48,50.55q10.77,11.19,24.45,11.19,13.26,0,23.21-9.94T567,370.65q0-13.26-10.36-23.62Z" style="fill:#fff"/></svg>