<svg xmlns="http://www.w3.org/2000/svg" viewBox="0 0 760 406"><title>nix</title><path d="M194.58,213.7q17.84,21.79,17.85,66.2v89.65q0,15.78-10,24.9t-27,9.13q-17,0-27-9.13t-10-24.9V283.22q0-18.26-6.43-26.56t-19.3-8.3q-16.61,0-26.36,10.58T76.7,287.37v82.18q0,15.78-10,24.9t-27,9.13q-17,0-27-9.13t-10-24.9V225.95q0-14.52,10.38-23.87t27-9.34q15.77,0,25.11,8.71t9.34,22.83a70.79,70.79,0,0,1,27.81-24.07,85,85,0,0,1,37.77-8.3Q176.72,191.91,194.58,213.7Z" style="fill:#551ead"/><path d="M264.51,395.08q-10.58-8.5-10.58-25.52V226.78q0-17,10.58-25.53t26.35-8.51q15.77,0,26.36,8.51t10.58,25.53V369.55q0,17-10.58,25.52t-26.36,8.51Q275.09,403.59,264.51,395.08Z" style="fill:#551ead"/><path d="M568.94,371.21q0,12.87-10,22.83t-23.24,10q-13.7,0-24.49-11.21l-48.56-50.64-48.14,50.64Q403.75,404,390.06,404q-13.29,0-23.24-10t-10-22.83q0-13.28,10.38-23.66l51.47-51.47L371.38,249.6Q361,239.24,361,225.95t9.75-23.24q9.75-10,23-10,14.11,0,24.49,11.62l44.41,45.24,44.83-45.24Q518.3,193.16,532,193.16a31.52,31.52,0,0,1,23,9.75q9.75,9.76,9.75,22.62,0,13.29-10.38,24.07L507.1,296.09l51.46,51.47Q568.93,357.93,568.94,371.21Z" style="fill:#551ead"/><path d="M582.84,177.48a99.47,99.47,0,0,0,13.48,11.29,94.59,94.59,0,0,0,108.42-90,9.41,9.41,0,0,0-1-17.93q-.69-4.52-1.79-8.9a14.31,14.31,0,1,0-11.14-26.37A95.07,95.07,0,0,0,650.88,9.66a98,98,0,0,0-26.53,4A35,35,0,0,1,626.56,26a35.54,35.54,0,0,1-10.91,25.88c-7.25,7.24-15.83,10.92-25.5,10.92A36.28,36.28,0,0,1,568.91,56a98.34,98.34,0,0,0,13.94,121.52Z" style="fill:#7c59ea"/><path d="M703.75,80.84a9.41,9.41,0,0,1,1,17.93,94.59,94.59,0,0,1-108.42,90,99.47,99.47,0,0,1-13.48-11.29A98.34,98.34,0,0,1,568.91,56a36.28,36.28,0,0,0,21.24,6.86c9.67,0,18.25-3.67,25.5-10.92A35.54,35.54,0,0,0,626.56,26a35,35,0,0,0-2.21-12.34h0a98,98,0,0,1,26.53-4,95.07,95.07,0,0,1,39.94,35.92A14.31,14.31,0,1,1,702,71.94Q703.06,76.32,703.75,80.84ZM574.68,51.35a37,37,0,0,1-7.29-5.94l-.23-.23-.13.18a105.8,105.8,0,0,0,12.42,139.34l-.21-.07a106,106,0,0,0,170.36-34.54,20.44,20.44,0,0,1-3.3-2.13,20,20,0,0,1-3.68-3.71,20.75,20.75,0,0,1-4-16c.84-6.06,3.45-10.83,7.95-14.15,4.22-3.12,7-4.5,11.69-4.67,0-.49,0-1,0-1.48A106,106,0,0,0,634.21,3.56l.21.06A105.08,105.08,0,0,0,614.81,9l-.14.05a29.26,29.26,0,0,1,4.08,8.33l.26.89c.26,1,.65,3,.66,3.08.09.61.16,1.23.21,1.85s.11,2.14.11,2.39c0,0,0,.08,0,.12q0,11.73-9.08,20.81t-21.19,9.08h-.21a28.23,28.23,0,0,1-14.58-4.13" style="fill:#551ead"/><circle cx="619.41" cy="146.93" r="18.84" style="fill:#6843dd"/><path d="M619.41,169.53a22.6,22.6,0,1,1,22.6-22.6A22.63,22.63,0,0,1,619.41,169.53Zm0-37.67a15.07,15.07,0,1,0,15.07,15.07A15.09,15.09,0,0,0,619.41,131.86Z" style="fill:#551ead"/><circle cx="671.12" cy="106.8" r="13.56" style="fill:#6843dd"/><path d="M671.12,124.13a17.33,17.33,0,1,1,17.33-17.33A17.35,17.35,0,0,1,671.12,124.13Zm0-27.12a9.79,9.79,0,1,0,9.79,9.79A9.81,9.81,0,0,0,671.12,97Z" style="fill:#551ead"/><circle cx="613.46" cy="80.11" r="9.79" style="fill:#6843dd"/><path d="M613.46,93.67A13.56,13.56,0,1,1,627,80.11,13.58,13.58,0,0,1,613.46,93.67Zm0-19.59a6,6,0,1,0,6,6A6,6,0,0,0,613.46,74.08Z" style="fill:#551ead"/></svg>