<svg xmlns="http://www.w3.org/2000/svg" viewBox="0 0 3903 1007"><title>sky</title><circle cx="2718.41" cy="5.99" r="4.7" style="fill:#fff"/><circle cx="1627.75" cy="909.79" r="4.7" style="fill:#fff"/><circle cx="2131.29" cy="766.77" r="3.16" style="fill:#fff"/><circle cx="816.74" cy="670.95" r="3.16" style="fill:#fff;opacity:0.5"/><circle cx="1081.49" cy="742.8" r="3.16" style="fill:#fff"/><circle cx="1960.49" cy="162.8" r="3.16" style="fill:#fff;opacity:0.5"/><circle cx="934.49" cy="987.8" r="3.16" style="fill:#fff;opacity:0.5"/><circle cx="1129.2" cy="273.99" r="3.16" style="fill:#fff;opacity:0.5"/><circle cx="1441.53" cy="709.57" r="4.7" style="fill:#fff"/><circle cx="1218.92" cy="404.66" r="3.8" transform="translate(-62.06 497.45) rotate(-22.51)" style="fill:#fff"/><circle cx="2223.92" cy="34.66" r="3.8" transform="translate(156.14 853.99) rotate(-22.51)" style="fill:#fff"/><circle cx="1307.22" cy="105.09" r="3.8" transform="translate(59.35 508.44) rotate(-22.51)" style="fill:#fff"/><circle cx="358.46" cy="270.66" r="3.8" transform="translate(-76.31 157.85) rotate(-22.51)" style="fill:#fff;opacity:0.5"/><circle cx="57.23" cy="959.76" r="3.8" transform="translate(-363.05 95.02) rotate(-22.51)" style="fill:#fff;opacity:0.5"/><circle cx="890.91" cy="303.97" r="3.8" transform="translate(-48.5 364.2) rotate(-22.51)" style="fill:#fff"/><circle cx="509.74" cy="109.21" r="3.8" transform="translate(-2.98 203.45) rotate(-22.51)" style="fill:#fff;opacity:0.5"/><circle cx="1583.18" cy="480.08" r="5.53" transform="translate(-63.18 642.64) rotate(-22.51)" style="fill:#fff"/><circle cx="2033.18" cy="405.08" r="5.53" transform="translate(-0.19 809.19) rotate(-22.51)" style="fill:#fff"/><circle cx="142.39" cy="468.26" r="4.7" transform="translate(-10.83 3.43) rotate(-1.33)" style="fill:#fff"/><circle cx="1623.06" cy="246.66" r="4.7" transform="translate(-5.29 37.72) rotate(-1.33)" style="fill:#fff"/><circle cx="1407.46" cy="431.03" r="3.16" transform="translate(-9.62 32.77) rotate(-1.33)" style="fill:#fff;opacity:0.5"/><circle cx="2634.18" cy="612.82" r="3.16" transform="translate(-13.51 61.27) rotate(-1.33)" style="fill:#fff;opacity:0.5"/><circle cx="2233.08" cy="284.8" r="3.16" transform="translate(-6.01 51.88) rotate(-1.33)" style="fill:#fff"/><circle cx="2677.84" cy="984.32" r="3.16" transform="translate(-22.11 62.39) rotate(-1.33)" style="fill:#fff;opacity:0.5"/><circle cx="2672.91" cy="281.38" r="4.7" transform="translate(-5.81 62.09) rotate(-1.33)" style="fill:#fff"/><circle cx="1684.4" cy="5.98" r="4.7" transform="translate(0.31 39.08) rotate(-1.33)" style="fill:#fff"/><circle cx="2350.66" cy="709.65" r="3.8" transform="translate(-86.28 1010.55) rotate(-23.84)" style="fill:#fff;opacity:0.5"/><circle cx="555.12" cy="896.62" r="5.53" transform="translate(-315.01 300.83) rotate(-23.84)" style="fill:#fff"/><circle cx="643.69" cy="474.27" r="5.53" transform="translate(-132.53 282.55) rotate(-22.51)" style="fill:#fff"/><circle cx="174.94" cy="645.92" r="5.53" transform="translate(-233.95 116.17) rotate(-22.51)" style="fill:#fff"/><circle cx="509.93" cy="668.24" r="4.7" transform="translate(-216.97 246.11) rotate(-22.51)" style="fill:#fff"/><circle cx="8.07" cy="58.94" r="4.7" transform="translate(-21.95 7.58) rotate(-22.51)" style="fill:#fff;opacity:0.5"/><circle cx="3771.74" cy="670.95" r="3.16" style="fill:#fff;opacity:0.5"/><circle cx="3889.49" cy="987.8" r="3.16" style="fill:#fff;opacity:0.5"/><circle cx="3313.46" cy="270.66" r="3.8" transform="translate(148.8 1289.1) rotate(-22.51)" style="fill:#fff;opacity:0.5"/><circle cx="3012.23" cy="959.76" r="3.8" transform="translate(-137.95 1226.24) rotate(-22.51)" style="fill:#fff;opacity:0.5"/><circle cx="3845.91" cy="303.97" r="3.8" transform="translate(176.59 1495.41) rotate(-22.51)" style="fill:#fff"/><circle cx="3464.74" cy="109.21" r="3.8" transform="translate(222.12 1334.68) rotate(-22.51)" style="fill:#fff;opacity:0.5"/><circle cx="3097.39" cy="468.26" r="4.7" transform="translate(-10.03 71.99) rotate(-1.33)" style="fill:#fff"/><circle cx="3510.12" cy="896.62" r="5.53" transform="translate(-62.94 1495.06) rotate(-23.84)" style="fill:#fff"/><circle cx="3598.69" cy="474.27" r="5.53" transform="translate(92.58 1413.8) rotate(-22.51)" style="fill:#fff"/><circle cx="3129.94" cy="645.92" r="5.53" transform="translate(-8.84 1247.4) rotate(-22.51)" style="fill:#fff"/><circle cx="3464.93" cy="668.24" r="4.7" transform="translate(8.13 1377.32) rotate(-22.51)" style="fill:#fff"/><circle cx="2963.07" cy="58.94" r="4.7" transform="translate(203.16 1138.82) rotate(-22.51)" style="fill:#fff;opacity:0.5"/></svg>